<svg width="387" height="274" viewBox="0 0 387 274" fill="none" xmlns="http://www.w3.org/2000/svg">
<g clip-path="url(#clip0_2062_5854)">
<mask id="mask0_2062_5854" style="mask-type:luminance" maskUnits="userSpaceOnUse" x="113" y="166" width="47" height="22">
<path d="M113.313 187.425H159.095C155.229 185.925 151.828 183.435 149.232 180.207C146.429 176.528 144.959 172.009 145.063 167.389V166.781C140.038 172.278 134.268 177.047 127.919 180.95C123.337 183.713 118.423 185.889 113.295 187.425" fill="white"/>
</mask>
<g mask="url(#mask0_2062_5854)">
<path d="M159.095 166.781H113.312V187.425H159.095V166.781Z" fill="url(#paint0_linear_2062_5854)"/>
</g>
<mask id="mask1_2062_5854" style="mask-type:luminance" maskUnits="userSpaceOnUse" x="113" y="7" width="159" height="181">
<path d="M121.768 12.5137C124.835 15.1945 127.546 18.2543 129.837 21.6193C168.536 77.5232 188.684 106.674 199.112 121.799L205.72 131.361C206.366 131.719 207.773 133.624 210.015 137.479C216.094 145.833 223.689 156.46 233.103 169.832C234.099 171.23 234.944 172.729 235.623 174.304C236.223 175.649 236.552 177.099 236.591 178.571C236.591 182.506 233.477 185.449 227.248 187.399H271.937C268.891 186.183 266.09 184.429 263.67 182.22C260.63 179.456 257.946 176.325 255.681 172.9C211.745 110.082 199.838 92.8453 190.791 79.7504C182.354 67.532 176.31 58.7753 152.424 24.7589C151.448 23.3834 150.61 21.9153 149.922 20.376C149.319 19.0941 148.984 17.7034 148.936 16.2883C148.936 12.3407 152.05 9.39796 158.279 7.45996H113.268C116.362 8.63865 119.225 10.3524 121.723 12.5226" fill="white"/>
</mask>
<g mask="url(#mask1_2062_5854)">
<path d="M272 7.45117H113.312V187.426H272V7.45117Z" fill="url(#paint1_linear_2062_5854)"/>
</g>
<mask id="mask2_2062_5854" style="mask-type:luminance" maskUnits="userSpaceOnUse" x="228" y="0" width="43" height="92">
<path d="M232.565 41.351C235.274 44.4146 238.195 47.284 241.308 49.9378C244.171 52.5564 246.867 55.3526 249.377 58.31C251.2 60.3952 252.735 62.7146 253.941 65.2063C255.364 68.3966 255.723 71.9586 254.963 75.3674C253.956 79.3994 251.97 83.1224 249.18 86.2083C247.579 88.112 245.851 89.905 244.006 91.5751C245.975 90.6729 247.872 89.6234 249.682 88.4355C253.956 85.563 257.794 82.0928 261.078 78.1313C264.898 73.6172 267.498 69.5325 268.879 65.8772C270.218 62.3351 270.433 59.1419 269.525 56.2975C268.591 54.0615 267.267 52.0082 265.615 50.233C262.909 47.1798 259.994 44.3167 256.891 41.6641C254.028 39.0415 251.333 36.2423 248.821 33.283C246.993 31.1919 245.452 28.8666 244.24 26.3688C242.816 23.1786 242.457 19.6164 243.217 16.2077C244.229 12.1771 246.214 8.45502 249.001 5.36677C250.602 3.46308 252.33 1.67003 254.174 0C252.204 0.901761 250.306 1.95441 248.499 3.14851C244.223 6.01494 240.384 9.48249 237.102 13.4438C233.283 17.9638 230.682 22.0515 229.302 25.7069C227.969 29.237 227.753 32.4272 228.656 35.2776C229.588 37.5214 230.918 39.5789 232.583 41.351" fill="white"/>
</mask>
<g mask="url(#mask2_2062_5854)">
<path d="M270.466 0H227.724V91.5929H270.466V0Z" fill="url(#paint2_linear_2062_5854)"/>
</g>
</g>
<path d="M76.152 271H66.232L83.832 247.64L67.768 226.2H77.944L86.776 238.68C87.352 239.512 87.992 240.408 88.568 241.496C89.144 240.408 89.848 239.512 90.424 238.68L99.064 226.2H108.984L93.112 247.512L110.712 271H100.408L90.552 257.048C89.848 256.088 89.08 254.872 88.44 253.656C87.736 254.872 86.84 256.152 86.136 257.176L76.152 271ZM129.378 272.152C117.345 272.152 110.306 265.624 109.602 255.64H118.306C118.754 261.848 123.81 265.048 129.762 265.048C134.754 265.048 138.722 263.256 138.722 258.904C138.722 255.512 136.29 253.656 131.362 252.696L123.746 251.224C116.706 249.88 111.202 245.72 111.202 238.552C111.202 230.616 118.562 225.048 128.674 225.048C139.938 225.048 146.146 231.064 146.658 239.768H137.954C137.762 235.608 134.818 232.088 128.29 232.088C123.298 232.088 119.586 234.136 119.586 237.848C119.586 241.304 122.594 242.52 127.138 243.416L134.69 244.888C141.666 246.232 147.17 250.2 147.17 257.688C147.17 266.072 140.898 272.152 129.378 272.152Z" fill="#EAC36C"/>
<path d="M170.163 271H162.995L150.835 226.2H156.851L165.555 258.776C166.067 260.44 166.515 262.168 166.963 263.96C167.411 262.36 168.051 260.312 168.435 258.776L177.203 226.2H184.499L193.139 258.776C193.651 260.44 194.163 262.36 194.547 264.024C195.059 262.232 195.507 260.504 195.955 258.776L204.851 226.2H210.547L198.387 271H191.283L182.387 237.464C181.875 235.48 181.299 233.496 180.787 231.512L179.251 237.464L170.163 271ZM227.67 271.96C218.774 271.96 212.502 265.368 212.502 255.512C212.502 245.912 218.774 239.128 227.67 239.128C236.502 239.128 242.838 245.912 242.838 255.512C242.838 265.368 236.502 271.96 227.67 271.96ZM227.67 267.672C233.558 267.672 237.142 262.744 237.142 255.512C237.142 248.28 233.43 243.48 227.67 243.48C221.91 243.48 218.198 248.28 218.198 255.512C218.198 262.744 221.782 267.672 227.67 267.672ZM255.803 271H250.299V240.152H255.803V241.496V245.272C257.339 241.752 260.731 239.128 265.467 239.128C265.851 239.128 266.363 239.128 266.875 239.192V244.632C266.427 244.568 265.915 244.504 265.147 244.504C259.195 244.504 255.803 247.832 255.803 254.68V271ZM272.486 226.2H277.99V271H272.486V226.2ZM299.71 271.96C291.646 271.96 285.502 266.072 285.502 255.576C285.502 246.232 291.07 239.128 299.838 239.128C304.958 239.128 308.35 241.944 309.758 244.312V241.816V226.2H315.262V271H309.758V269.208V266.712C308.094 269.592 304.318 271.96 299.71 271.96ZM300.67 267.672C306.174 267.672 310.142 262.936 310.142 255.512C310.142 248.152 306.238 243.48 300.67 243.48C295.102 243.48 291.198 248.344 291.198 255.576C291.198 262.808 295.038 267.672 300.67 267.672Z" fill="#F4F3EF"/>
<defs>
<linearGradient id="paint0_linear_2062_5854" x1="113.312" y1="177.103" x2="159.095" y2="177.103" gradientUnits="userSpaceOnUse">
<stop stop-color="#805711"/>
<stop offset="0.25" stop-color="#CCB260"/>
<stop offset="0.5" stop-color="#FEF3B3"/>
<stop offset="0.75" stop-color="#CCB260"/>
<stop offset="1" stop-color="#805700"/>
</linearGradient>
<linearGradient id="paint1_linear_2062_5854" x1="113.312" y1="97.443" x2="272" y2="97.443" gradientUnits="userSpaceOnUse">
<stop stop-color="#805711"/>
<stop offset="0.25" stop-color="#CCB260"/>
<stop offset="0.5" stop-color="#FEF3B3"/>
<stop offset="0.75" stop-color="#CCB260"/>
<stop offset="1" stop-color="#805700"/>
</linearGradient>
<linearGradient id="paint2_linear_2062_5854" x1="226.101" y1="26.4045" x2="272.005" y2="65.2984" gradientUnits="userSpaceOnUse">
<stop stop-color="#805711"/>
<stop offset="0.25" stop-color="#CCB260"/>
<stop offset="0.5" stop-color="#FEF3B3"/>
<stop offset="0.75" stop-color="#CCB260"/>
<stop offset="1" stop-color="#805700"/>
</linearGradient>
<clipPath id="clip0_2062_5854">
<rect width="158.687" height="187.426" fill="white" transform="translate(113.312)"/>
</clipPath>
</defs>
</svg>
